<svg xmlns="http://www.w3.org/2000/svg" viewBox="0 0 29.92 25.37">
  <title>Fichier 10</title>
  <g id="bfe55ee2-702c-4f86-b30b-0faa6d6583ff" data-name="Calque 2">
    <g id="e239bba7-29d3-4d98-b207-41fec2046c46" data-name="Calque 1">
      <g>
        <path d="M16.21,14.46a.82.82,0,0,1,.28.05L18,15,20,1C12.65,23.65,0,.73,0,.73L1.47,20h0l.25,3H14l.45-2.68,1.05-5.23A.75.75,0,0,1,16.21,14.46Z"/>
        <path d="M18.89,0H.86S12.35,20,18.89,0Z"/>
        <path d="M29.81,5.32a1.07,1.07,0,0,0-.55-.48l-6.4-2.48a.86.86,0,0,0-1.16.47l-.55,1.68a.86.86,0,0,0,.07.68L23,8.51l0,0-2.81,8.07-3-.71a.79.79,0,0,0-.28-.05.74.74,0,0,0-.72.63l-1,5.23-.61,3.07a.81.81,0,0,0,.07.58A14.25,14.25,0,0,1,18,23.54c1.75-.7,4.5-1,6.23,0l1.54-3.45A.77.77,0,0,0,25.32,19L23.1,17.74l2.28-8.18,3.49-1.41a.77.77,0,0,0,.45-.48L29.88,6A.87.87,0,0,0,29.81,5.32ZM27.65,6.64l-2.39,1-.94-.36L23,4.85l.17-.52,4.61,1.79Z"/>
      </g>
    </g>
  </g>
</svg>
