<svg id="88704354-7353-4bd9-ae1e-e05c3241457f" data-name="Calque 1" xmlns="http://www.w3.org/2000/svg" viewBox="0 0 32 32">
  <title>sandbox</title>
  <g>
    <path d="M30.45,22.88l-2.58-1.42,2.69-9.27a1.14,1.14,0,0,0-.68-1.46l-.7-.25a1.15,1.15,0,0,0-1.46.68l-3.28,9-3.5-.8a1,1,0,0,0-.32-.06.85.85,0,0,0-.84.71l-1.2,5.86-.71,3.44a.88.88,0,0,0,.08.65A16.81,16.81,0,0,1,21.87,28c2-.78,5.25-1.11,7.26,0l1.79-3.87A.86.86,0,0,0,30.45,22.88Z"/>
    <path d="M19.85,17.38a1,1,0,0,1,.33.06L22,18,24,2C15.46,27.34,1,2,1,2L2.67,23.55h0L3,27H17l.8-3L19,18.09A.86.86,0,0,1,19.85,17.38Z"/>
    <path d="M23,2H2S15.34,24.41,23,2Z"/>
  </g>
</svg>
