<svg xmlns="http://www.w3.org/2000/svg" viewBox="0 0 30.08 28.01"><title>Fichier 4</title><g id="Calque_2" data-name="Calque 2"><g id="Calque_1-2" data-name="Calque 1"><path d="M29.49,20.88l-2.58-1.42,2.69-9.27a1.14,1.14,0,0,0-.68-1.46l-.7-.25a1.15,1.15,0,0,0-1.46.68l-3.28,9-3.5-.8a1,1,0,0,0-.32-.06.85.85,0,0,0-.84.71l-1.2,5.86-.71,3.44A.88.88,0,0,0,17,28,16.81,16.81,0,0,1,20.91,26c2-.78,5.25-1.11,7.26,0L30,22.12A.86.86,0,0,0,29.49,20.88Z"/><path d="M18.88,15.38a1,1,0,0,1,.33.06L21,16,23,0C14.5,25.34,0,0,0,0L1.71,21.55h0L2,25H16l.8-3L18,16.09A.86.86,0,0,1,18.88,15.38Z"/><path d="M22,0H1S14.38,22.41,22,0Z"/></g></g></svg>