<svg id="3d9cce56-a55c-468d-baba-c3ef9912900c" data-name="Calque 1" xmlns="http://www.w3.org/2000/svg" viewBox="0 0 32 32">
  <title>tree</title>
  <path d="M25.66,25l.18,0a8.29,8.29,0,0,0-3.15-4.83A7.68,7.68,0,0,1,20.22,17H25V14H19.43a7.83,7.83,0,0,0-3.3-4.47A7.62,7.62,0,0,1,13.75,7H18V4H7V7h4.41A8.16,8.16,0,0,1,9.21,9.57,8.39,8.39,0,0,0,6.2,14H1v3H12V14H7.25a7.43,7.43,0,0,1,2.62-3.67A8.83,8.83,0,0,0,12.52,7h.11a8.2,8.2,0,0,0,2.9,3.33A6.93,6.93,0,0,1,18.38,14H14v3h4.27a8.32,8.32,0,0,1-2.57,3.18A8.79,8.79,0,0,0,12.45,25H7v3H18V25H13.5a7.88,7.88,0,0,1,2.86-4.06,9.19,9.19,0,0,0,2.89-3.68A8.58,8.58,0,0,0,22,20.88,7.35,7.35,0,0,1,24.81,25H20v3H31V25ZM19.3,17l-.05,0-.05,0Z"/>
</svg>
