<svg xmlns="http://www.w3.org/2000/svg" viewBox="0 0 30 24"><title>Fichier 7</title><g id="Calque_2" data-name="Calque 2"><g id="Calque_1-2" data-name="Calque 1"><path d="M24.66,21l.18,0a8.29,8.29,0,0,0-3.15-4.83A7.68,7.68,0,0,1,19.22,13H24V10H18.43a7.83,7.83,0,0,0-3.3-4.47A7.62,7.62,0,0,1,12.75,3H17V0H6V3h4.41A8.16,8.16,0,0,1,8.21,5.57,8.39,8.39,0,0,0,5.2,10H0v3H11V10H6.25A7.43,7.43,0,0,1,8.86,6.33,8.83,8.83,0,0,0,11.52,3h.11a8.2,8.2,0,0,0,2.9,3.33A6.93,6.93,0,0,1,17.38,10H13v3h4.27a8.32,8.32,0,0,1-2.57,3.18A8.79,8.79,0,0,0,11.45,21H6v3H17V21H12.5a7.88,7.88,0,0,1,2.86-4.06,9.19,9.19,0,0,0,2.89-3.68A8.58,8.58,0,0,0,21,16.88,7.35,7.35,0,0,1,23.81,21H19v3H30V21ZM18.3,13l-.05,0-.05,0Z"/></g></g></svg>